<mxfile host="app.diagrams.net" modified="2023-09-24T15:15:55.951Z" agent="Mozilla/5.0 (Windows NT 10.0; Win64; x64) AppleWebKit/537.36 (KHTML, like Gecko) Chrome/117.0.0.0 Safari/537.36 Edg/117.0.2045.36" etag="LttSRMjuRrGld0NrCTgK" version="21.7.5" type="github">
  <diagram name="Trang-1" id="PeejtmCLzA79qcFrn2Yu">
    <mxGraphModel dx="1373" dy="660" grid="1" gridSize="10" guides="1" tooltips="1" connect="1" arrows="1" fold="1" page="1" pageScale="1" pageWidth="827" pageHeight="1169" math="0" shadow="0">
      <root>
        <mxCell id="0" />
        <mxCell id="1" parent="0" />
        <mxCell id="spLX2i-S5mYP4kh3BP9z-1" value="Employee" style="rounded=0;whiteSpace=wrap;html=1;" vertex="1" parent="1">
          <mxGeometry x="200" y="280" width="120" height="60" as="geometry" />
        </mxCell>
        <mxCell id="spLX2i-S5mYP4kh3BP9z-2" value="&lt;u&gt;Employee Number&lt;/u&gt;" style="ellipse;whiteSpace=wrap;html=1;aspect=fixed;" vertex="1" parent="1">
          <mxGeometry x="80" y="180" width="60" height="60" as="geometry" />
        </mxCell>
        <mxCell id="spLX2i-S5mYP4kh3BP9z-3" value="Name" style="ellipse;whiteSpace=wrap;html=1;aspect=fixed;" vertex="1" parent="1">
          <mxGeometry x="260" y="170" width="60" height="60" as="geometry" />
        </mxCell>
        <mxCell id="spLX2i-S5mYP4kh3BP9z-4" value="First Name" style="ellipse;whiteSpace=wrap;html=1;aspect=fixed;" vertex="1" parent="1">
          <mxGeometry x="170" y="90" width="60" height="60" as="geometry" />
        </mxCell>
        <mxCell id="spLX2i-S5mYP4kh3BP9z-5" value="Last Name" style="ellipse;whiteSpace=wrap;html=1;aspect=fixed;" vertex="1" parent="1">
          <mxGeometry x="280" y="90" width="60" height="60" as="geometry" />
        </mxCell>
        <mxCell id="spLX2i-S5mYP4kh3BP9z-7" value="" style="endArrow=none;html=1;rounded=0;exitX=0.65;exitY=0.95;exitDx=0;exitDy=0;exitPerimeter=0;" edge="1" parent="1" source="spLX2i-S5mYP4kh3BP9z-2" target="spLX2i-S5mYP4kh3BP9z-1">
          <mxGeometry width="50" height="50" relative="1" as="geometry">
            <mxPoint x="390" y="420" as="sourcePoint" />
            <mxPoint x="440" y="370" as="targetPoint" />
          </mxGeometry>
        </mxCell>
        <mxCell id="spLX2i-S5mYP4kh3BP9z-8" value="" style="endArrow=none;html=1;rounded=0;exitX=0.767;exitY=1;exitDx=0;exitDy=0;exitPerimeter=0;entryX=0.067;entryY=0.317;entryDx=0;entryDy=0;entryPerimeter=0;" edge="1" parent="1" source="spLX2i-S5mYP4kh3BP9z-4" target="spLX2i-S5mYP4kh3BP9z-3">
          <mxGeometry width="50" height="50" relative="1" as="geometry">
            <mxPoint x="390" y="420" as="sourcePoint" />
            <mxPoint x="440" y="370" as="targetPoint" />
          </mxGeometry>
        </mxCell>
        <mxCell id="spLX2i-S5mYP4kh3BP9z-9" value="" style="endArrow=none;html=1;rounded=0;exitX=1;exitY=0;exitDx=0;exitDy=0;entryX=0.5;entryY=1;entryDx=0;entryDy=0;" edge="1" parent="1" source="spLX2i-S5mYP4kh3BP9z-3" target="spLX2i-S5mYP4kh3BP9z-5">
          <mxGeometry width="50" height="50" relative="1" as="geometry">
            <mxPoint x="390" y="420" as="sourcePoint" />
            <mxPoint x="440" y="370" as="targetPoint" />
          </mxGeometry>
        </mxCell>
        <mxCell id="spLX2i-S5mYP4kh3BP9z-10" value="" style="endArrow=none;html=1;rounded=0;exitX=0.5;exitY=1;exitDx=0;exitDy=0;entryX=0.617;entryY=0.033;entryDx=0;entryDy=0;entryPerimeter=0;" edge="1" parent="1" source="spLX2i-S5mYP4kh3BP9z-3" target="spLX2i-S5mYP4kh3BP9z-1">
          <mxGeometry width="50" height="50" relative="1" as="geometry">
            <mxPoint x="219" y="257" as="sourcePoint" />
            <mxPoint x="277" y="290" as="targetPoint" />
          </mxGeometry>
        </mxCell>
        <mxCell id="spLX2i-S5mYP4kh3BP9z-12" value="Customer" style="rounded=0;whiteSpace=wrap;html=1;" vertex="1" parent="1">
          <mxGeometry x="560" y="290" width="120" height="60" as="geometry" />
        </mxCell>
        <mxCell id="spLX2i-S5mYP4kh3BP9z-13" value="&lt;u&gt;Customer Number&lt;/u&gt;" style="ellipse;whiteSpace=wrap;html=1;aspect=fixed;" vertex="1" parent="1">
          <mxGeometry x="470" y="200" width="60" height="60" as="geometry" />
        </mxCell>
        <mxCell id="spLX2i-S5mYP4kh3BP9z-14" value="Name" style="ellipse;whiteSpace=wrap;html=1;aspect=fixed;" vertex="1" parent="1">
          <mxGeometry x="590" y="200" width="60" height="60" as="geometry" />
        </mxCell>
        <mxCell id="spLX2i-S5mYP4kh3BP9z-15" value="First Name" style="ellipse;whiteSpace=wrap;html=1;aspect=fixed;" vertex="1" parent="1">
          <mxGeometry x="510" y="110" width="60" height="60" as="geometry" />
        </mxCell>
        <mxCell id="spLX2i-S5mYP4kh3BP9z-16" value="Last Name" style="ellipse;whiteSpace=wrap;html=1;aspect=fixed;" vertex="1" parent="1">
          <mxGeometry x="600" y="110" width="60" height="60" as="geometry" />
        </mxCell>
        <mxCell id="spLX2i-S5mYP4kh3BP9z-17" value="" style="endArrow=none;html=1;rounded=0;exitX=0.65;exitY=0.95;exitDx=0;exitDy=0;exitPerimeter=0;" edge="1" parent="1" source="spLX2i-S5mYP4kh3BP9z-13" target="spLX2i-S5mYP4kh3BP9z-12">
          <mxGeometry width="50" height="50" relative="1" as="geometry">
            <mxPoint x="690" y="430" as="sourcePoint" />
            <mxPoint x="740" y="380" as="targetPoint" />
          </mxGeometry>
        </mxCell>
        <mxCell id="spLX2i-S5mYP4kh3BP9z-18" value="" style="endArrow=none;html=1;rounded=0;exitX=0.767;exitY=1;exitDx=0;exitDy=0;exitPerimeter=0;entryX=0.067;entryY=0.317;entryDx=0;entryDy=0;entryPerimeter=0;" edge="1" parent="1" source="spLX2i-S5mYP4kh3BP9z-15" target="spLX2i-S5mYP4kh3BP9z-14">
          <mxGeometry width="50" height="50" relative="1" as="geometry">
            <mxPoint x="690" y="430" as="sourcePoint" />
            <mxPoint x="740" y="380" as="targetPoint" />
          </mxGeometry>
        </mxCell>
        <mxCell id="spLX2i-S5mYP4kh3BP9z-19" value="" style="endArrow=none;html=1;rounded=0;exitX=1;exitY=0;exitDx=0;exitDy=0;entryX=0.5;entryY=1;entryDx=0;entryDy=0;" edge="1" parent="1" source="spLX2i-S5mYP4kh3BP9z-14" target="spLX2i-S5mYP4kh3BP9z-16">
          <mxGeometry width="50" height="50" relative="1" as="geometry">
            <mxPoint x="690" y="430" as="sourcePoint" />
            <mxPoint x="740" y="380" as="targetPoint" />
          </mxGeometry>
        </mxCell>
        <mxCell id="spLX2i-S5mYP4kh3BP9z-20" value="" style="endArrow=none;html=1;rounded=0;exitX=0.5;exitY=1;exitDx=0;exitDy=0;entryX=0.5;entryY=0;entryDx=0;entryDy=0;" edge="1" parent="1" source="spLX2i-S5mYP4kh3BP9z-14" target="spLX2i-S5mYP4kh3BP9z-12">
          <mxGeometry width="50" height="50" relative="1" as="geometry">
            <mxPoint x="519" y="267" as="sourcePoint" />
            <mxPoint x="577" y="300" as="targetPoint" />
          </mxGeometry>
        </mxCell>
        <mxCell id="spLX2i-S5mYP4kh3BP9z-21" value="Zip Code" style="ellipse;whiteSpace=wrap;html=1;aspect=fixed;" vertex="1" parent="1">
          <mxGeometry x="680" y="160" width="60" height="60" as="geometry" />
        </mxCell>
        <mxCell id="spLX2i-S5mYP4kh3BP9z-22" value="" style="endArrow=none;html=1;rounded=0;exitX=0.41;exitY=1.048;exitDx=0;exitDy=0;entryX=0.75;entryY=0;entryDx=0;entryDy=0;exitPerimeter=0;" edge="1" parent="1" source="spLX2i-S5mYP4kh3BP9z-21" target="spLX2i-S5mYP4kh3BP9z-12">
          <mxGeometry width="50" height="50" relative="1" as="geometry">
            <mxPoint x="630" y="270" as="sourcePoint" />
            <mxPoint x="630" y="300" as="targetPoint" />
          </mxGeometry>
        </mxCell>
        <mxCell id="spLX2i-S5mYP4kh3BP9z-24" value="Part" style="rounded=0;whiteSpace=wrap;html=1;" vertex="1" parent="1">
          <mxGeometry x="210" y="470" width="120" height="60" as="geometry" />
        </mxCell>
        <mxCell id="spLX2i-S5mYP4kh3BP9z-25" value="&lt;u&gt;Part&amp;nbsp;&lt;br&gt;Number&lt;br&gt;&lt;/u&gt;" style="ellipse;whiteSpace=wrap;html=1;aspect=fixed;" vertex="1" parent="1">
          <mxGeometry x="90" y="540" width="60" height="60" as="geometry" />
        </mxCell>
        <mxCell id="spLX2i-S5mYP4kh3BP9z-26" value="Part Name" style="ellipse;whiteSpace=wrap;html=1;aspect=fixed;" vertex="1" parent="1">
          <mxGeometry x="180" y="585" width="60" height="60" as="geometry" />
        </mxCell>
        <mxCell id="spLX2i-S5mYP4kh3BP9z-27" value="price" style="ellipse;whiteSpace=wrap;html=1;aspect=fixed;" vertex="1" parent="1">
          <mxGeometry x="280" y="585" width="60" height="60" as="geometry" />
        </mxCell>
        <mxCell id="spLX2i-S5mYP4kh3BP9z-28" value="Quatity in stock" style="ellipse;whiteSpace=wrap;html=1;aspect=fixed;" vertex="1" parent="1">
          <mxGeometry x="370" y="585" width="60" height="60" as="geometry" />
        </mxCell>
        <mxCell id="spLX2i-S5mYP4kh3BP9z-29" value="" style="endArrow=none;html=1;rounded=0;exitX=1;exitY=0;exitDx=0;exitDy=0;entryX=0;entryY=0.75;entryDx=0;entryDy=0;" edge="1" parent="1" source="spLX2i-S5mYP4kh3BP9z-25" target="spLX2i-S5mYP4kh3BP9z-24">
          <mxGeometry width="50" height="50" relative="1" as="geometry">
            <mxPoint x="219" y="237" as="sourcePoint" />
            <mxPoint x="290" y="290" as="targetPoint" />
          </mxGeometry>
        </mxCell>
        <mxCell id="spLX2i-S5mYP4kh3BP9z-30" value="" style="endArrow=none;html=1;rounded=0;exitX=0.289;exitY=0.089;exitDx=0;exitDy=0;entryX=0.165;entryY=1.047;entryDx=0;entryDy=0;exitPerimeter=0;entryPerimeter=0;" edge="1" parent="1" source="spLX2i-S5mYP4kh3BP9z-26" target="spLX2i-S5mYP4kh3BP9z-24">
          <mxGeometry width="50" height="50" relative="1" as="geometry">
            <mxPoint x="151" y="559" as="sourcePoint" />
            <mxPoint x="200" y="525" as="targetPoint" />
          </mxGeometry>
        </mxCell>
        <mxCell id="spLX2i-S5mYP4kh3BP9z-32" value="" style="endArrow=none;html=1;rounded=0;exitX=0.303;exitY=0.089;exitDx=0;exitDy=0;entryX=0.658;entryY=1.006;entryDx=0;entryDy=0;exitPerimeter=0;entryPerimeter=0;" edge="1" parent="1" source="spLX2i-S5mYP4kh3BP9z-27" target="spLX2i-S5mYP4kh3BP9z-24">
          <mxGeometry width="50" height="50" relative="1" as="geometry">
            <mxPoint x="207" y="600" as="sourcePoint" />
            <mxPoint x="220" y="543" as="targetPoint" />
          </mxGeometry>
        </mxCell>
        <mxCell id="spLX2i-S5mYP4kh3BP9z-33" value="" style="endArrow=none;html=1;rounded=0;exitX=0;exitY=0;exitDx=0;exitDy=0;entryX=1;entryY=0.75;entryDx=0;entryDy=0;" edge="1" parent="1" source="spLX2i-S5mYP4kh3BP9z-28" target="spLX2i-S5mYP4kh3BP9z-24">
          <mxGeometry width="50" height="50" relative="1" as="geometry">
            <mxPoint x="308" y="600" as="sourcePoint" />
            <mxPoint x="279" y="540" as="targetPoint" />
          </mxGeometry>
        </mxCell>
        <mxCell id="spLX2i-S5mYP4kh3BP9z-40" value="&lt;u&gt;Order&lt;br&gt;Number&lt;br&gt;&lt;/u&gt;" style="ellipse;whiteSpace=wrap;html=1;aspect=fixed;" vertex="1" parent="1">
          <mxGeometry x="420" y="480" width="60" height="60" as="geometry" />
        </mxCell>
        <mxCell id="spLX2i-S5mYP4kh3BP9z-42" value="Actual Ship date" style="ellipse;whiteSpace=wrap;html=1;aspect=fixed;" vertex="1" parent="1">
          <mxGeometry x="510" y="500" width="60" height="60" as="geometry" />
        </mxCell>
        <mxCell id="spLX2i-S5mYP4kh3BP9z-44" value="Expected ship date" style="ellipse;whiteSpace=wrap;html=1;aspect=fixed;" vertex="1" parent="1">
          <mxGeometry x="570" y="430" width="60" height="60" as="geometry" />
        </mxCell>
        <mxCell id="spLX2i-S5mYP4kh3BP9z-45" value="" style="endArrow=none;html=1;rounded=0;exitX=0.419;exitY=0.036;exitDx=0;exitDy=0;exitPerimeter=0;entryX=0.333;entryY=0.888;entryDx=0;entryDy=0;entryPerimeter=0;" edge="1" parent="1" source="spLX2i-S5mYP4kh3BP9z-40" target="spLX2i-S5mYP4kh3BP9z-49">
          <mxGeometry width="50" height="50" relative="1" as="geometry">
            <mxPoint x="389" y="604" as="sourcePoint" />
            <mxPoint x="556.3169425511196" y="520" as="targetPoint" />
          </mxGeometry>
        </mxCell>
        <mxCell id="spLX2i-S5mYP4kh3BP9z-46" value="" style="endArrow=none;html=1;rounded=0;exitX=0.252;exitY=-0.007;exitDx=0;exitDy=0;exitPerimeter=0;entryX=0.746;entryY=0.834;entryDx=0;entryDy=0;entryPerimeter=0;" edge="1" parent="1" source="spLX2i-S5mYP4kh3BP9z-42" target="spLX2i-S5mYP4kh3BP9z-49">
          <mxGeometry width="50" height="50" relative="1" as="geometry">
            <mxPoint x="525" y="582" as="sourcePoint" />
            <mxPoint x="580" y="520" as="targetPoint" />
          </mxGeometry>
        </mxCell>
        <mxCell id="spLX2i-S5mYP4kh3BP9z-47" value="" style="endArrow=none;html=1;rounded=0;entryX=0.876;entryY=0.584;entryDx=0;entryDy=0;entryPerimeter=0;" edge="1" parent="1" source="spLX2i-S5mYP4kh3BP9z-44" target="spLX2i-S5mYP4kh3BP9z-49">
          <mxGeometry width="50" height="50" relative="1" as="geometry">
            <mxPoint x="625" y="580" as="sourcePoint" />
            <mxPoint x="618.6399999999999" y="522.1600000000001" as="targetPoint" />
          </mxGeometry>
        </mxCell>
        <mxCell id="spLX2i-S5mYP4kh3BP9z-49" value="Order" style="rhombus;whiteSpace=wrap;html=1;" vertex="1" parent="1">
          <mxGeometry x="410" y="370" width="80" height="80" as="geometry" />
        </mxCell>
        <mxCell id="spLX2i-S5mYP4kh3BP9z-50" value="" style="endArrow=none;html=1;rounded=0;exitX=1;exitY=0.5;exitDx=0;exitDy=0;entryX=0.015;entryY=0.604;entryDx=0;entryDy=0;entryPerimeter=0;" edge="1" parent="1" source="spLX2i-S5mYP4kh3BP9z-49" target="spLX2i-S5mYP4kh3BP9z-12">
          <mxGeometry width="50" height="50" relative="1" as="geometry">
            <mxPoint x="400" y="400" as="sourcePoint" />
            <mxPoint x="450" y="350" as="targetPoint" />
          </mxGeometry>
        </mxCell>
        <mxCell id="spLX2i-S5mYP4kh3BP9z-51" value="" style="endArrow=none;html=1;rounded=0;exitX=1;exitY=0;exitDx=0;exitDy=0;entryX=0;entryY=0.5;entryDx=0;entryDy=0;" edge="1" parent="1" source="spLX2i-S5mYP4kh3BP9z-24" target="spLX2i-S5mYP4kh3BP9z-49">
          <mxGeometry width="50" height="50" relative="1" as="geometry">
            <mxPoint x="400" y="400" as="sourcePoint" />
            <mxPoint x="450" y="350" as="targetPoint" />
          </mxGeometry>
        </mxCell>
        <mxCell id="spLX2i-S5mYP4kh3BP9z-52" value="" style="endArrow=none;html=1;rounded=0;exitX=0.986;exitY=0.655;exitDx=0;exitDy=0;entryX=0.5;entryY=0;entryDx=0;entryDy=0;exitPerimeter=0;" edge="1" parent="1" source="spLX2i-S5mYP4kh3BP9z-1" target="spLX2i-S5mYP4kh3BP9z-49">
          <mxGeometry width="50" height="50" relative="1" as="geometry">
            <mxPoint x="500" y="400" as="sourcePoint" />
            <mxPoint x="572" y="336" as="targetPoint" />
          </mxGeometry>
        </mxCell>
        <mxCell id="spLX2i-S5mYP4kh3BP9z-53" value="(0 , n)" style="text;html=1;align=center;verticalAlign=middle;resizable=0;points=[];autosize=1;strokeColor=none;fillColor=none;" vertex="1" parent="1">
          <mxGeometry x="475" y="348" width="50" height="30" as="geometry" />
        </mxCell>
        <mxCell id="spLX2i-S5mYP4kh3BP9z-54" value="(0 , n)" style="text;html=1;align=center;verticalAlign=middle;resizable=0;points=[];autosize=1;strokeColor=none;fillColor=none;" vertex="1" parent="1">
          <mxGeometry x="340" y="400" width="50" height="30" as="geometry" />
        </mxCell>
        <mxCell id="spLX2i-S5mYP4kh3BP9z-55" value="(1 , 1)&lt;br&gt;" style="text;html=1;align=center;verticalAlign=middle;resizable=0;points=[];autosize=1;strokeColor=none;fillColor=none;" vertex="1" parent="1">
          <mxGeometry x="380" y="320" width="50" height="30" as="geometry" />
        </mxCell>
      </root>
    </mxGraphModel>
  </diagram>
</mxfile>
